# xmcd
#
# Track frame offsets:
#	150
#	8380
#	23393
#	40155
#	58930
#	79677
#	88497
#	108392
#	115885
#	120289
#	127391
#
# Disc length: 2435 seconds
#
# Revision: 1
# Processed by: cddbd v1.5.2PL0 Copyright (c) Steve Scherf et al.
# Submitted via: audiograbber 1.83.01
#
DISCID=8509810b
DTITLE=Schneider, Helge - Piano Fantasie No.4 [Box-Set] CD1
DYEAR=2012
DGENRE=Jazz
TTITLE0=Schneider, Helge - Welcome (Der Freundliche Kellner)
TTITLE1=Schneider, Helge - Pommes
TTITLE2=Schneider, Helge - Hampelmann 
TTITLE3=Schneider, Helge - Der Blaue Hut
TTITLE4=Schneider, Helge - Moped (Tobias)
TTITLE5=Schneider, Helge - Harry - Live
TTITLE6=Schneider, Helge - Das Huhnlied
TTITLE7=Schneider, Helge - Kreuzworträtsel - Live
TTITLE8=Schneider, Helge - Elvis - Live
TTITLE9=Schneider, Helge - Love Me Tender - Live
TTITLE10=Schneider, Helge - Katzenoma - Live
EXTD=
EXTT0=
EXTT1=
EXTT2=
EXTT3=
EXTT4=
EXTT5=
EXTT6=
EXTT7=
EXTT8=
EXTT9=
EXTT10=
PLAYORDER=
